<svg width="20" height="18" viewBox="0 0 20 18" fill="none" xmlns="http://www.w3.org/2000/svg">
<path fill-rule="evenodd" clip-rule="evenodd" d="M2.09935e-06 8.75037C2.17888e-06 8.41889 0.131682 8.10098 0.366076 7.86659C0.600472 7.63219 0.918379 7.50051 1.24986 7.50051L15.7307 7.50051L10.3638 2.13611C10.2476 2.01991 10.1555 1.88195 10.0926 1.73012C10.0297 1.57829 9.99731 1.41555 9.99731 1.25121C9.99731 1.08687 10.0297 0.924137 10.0926 0.772306C10.1555 0.620474 10.2476 0.482517 10.3638 0.36631C10.4801 0.250103 10.618 0.157922 10.7698 0.0950314C10.9217 0.0321423 11.0844 -0.000227259 11.2487 -0.000227253C11.4131 -0.000227248 11.5758 0.0321424 11.7277 0.0950315C11.8795 0.157922 12.0174 0.250103 12.1336 0.36631L19.6328 7.86547C19.7492 7.98157 19.8416 8.1195 19.9046 8.27135C19.9676 8.42319 20 8.58597 20 8.75037C20 8.91477 19.9676 9.07756 19.9046 9.22941C19.8416 9.38125 19.7492 9.51917 19.6328 9.63528L12.1336 17.1344C11.899 17.3691 11.5806 17.501 11.2487 17.501C10.9168 17.501 10.5985 17.3691 10.3638 17.1344C10.1292 16.8997 9.99731 16.5814 9.99731 16.2495C9.99731 15.9176 10.1292 15.5993 10.3638 15.3646L15.7307 10.0002L1.24986 10.0002C0.918379 10.0002 0.600471 9.86855 0.366075 9.63416C0.131681 9.39976 2.01982e-06 9.08186 2.09935e-06 8.75037Z" fill="white"/>
</svg>
