<svg width="72" height="72" viewBox="0 0 72 72" fill="none" xmlns="http://www.w3.org/2000/svg">
<path d="M56.831 39.696V28.33C56.831 22.8036 54.6356 17.5034 50.7278 13.5956C46.82 9.68782 41.5199 7.49243 35.9934 7.49243C30.4669 7.49243 25.1668 9.68782 21.259 13.5956C17.3511 17.5034 15.1558 22.8036 15.1558 28.33V39.696C15.1558 45.2225 17.3511 50.5226 21.259 54.4304C25.1668 58.3382 30.4669 60.5336 35.9934 60.5336C41.5199 60.5336 46.82 58.3382 50.7278 54.4304C54.6356 50.5226 56.831 45.2225 56.831 39.696ZM28.9654 45.9283C29.1415 45.7508 29.351 45.6099 29.5819 45.5137C29.8127 45.4175 30.0603 45.368 30.3104 45.368C30.5605 45.368 30.8081 45.4175 31.0389 45.5137C31.2697 45.6099 31.4793 45.7508 31.6554 45.9283C32.2239 46.5 32.8999 46.9535 33.6444 47.2631C34.3888 47.5726 35.1871 47.7319 35.9934 47.7319C36.7996 47.7319 37.5979 47.5726 38.3424 47.2631C39.0868 46.9535 39.7628 46.5 40.3314 45.9283C40.6881 45.5716 41.1719 45.3712 41.6764 45.3712C42.1808 45.3712 42.6646 45.5716 43.0213 45.9283C43.378 46.285 43.5784 46.7688 43.5784 47.2733C43.5784 47.7778 43.378 48.2616 43.0213 48.6183C36.448 55.1158 25.8587 49.035 28.9654 45.9283Z" fill="#575EFF"/>
<path d="M66.3015 24.5418H64.142C63.2062 17.7407 59.8398 11.5083 54.6651 6.99691C49.4904 2.48546 42.8574 0 35.9922 0C29.1271 0 22.494 2.48546 17.3194 6.99691C12.1447 11.5083 8.77829 17.7407 7.84252 24.5418H5.68299C4.17576 24.5418 2.73027 25.1405 1.66451 26.2063C0.598742 27.2721 0 28.7175 0 30.2248V41.5907C0 43.098 0.598742 44.5434 1.66451 45.6092C2.73027 46.675 4.17576 47.2737 5.68299 47.2737H11.366C11.8684 47.2737 12.3502 47.0741 12.7055 46.7189C13.0607 46.3636 13.2603 45.8818 13.2603 45.3794V26.4361C13.2661 25.9821 13.1087 25.541 12.8166 25.1933C12.5246 24.8456 12.1173 24.6144 11.6691 24.5418C12.5862 18.7502 15.5398 13.476 19.9985 9.6678C24.4573 5.85958 30.1285 3.76729 35.9922 3.76729C41.8559 3.76729 47.5272 5.85958 51.986 9.6678C56.4447 13.476 59.3983 18.7502 60.3154 24.5418C59.8672 24.6144 59.4599 24.8456 59.1679 25.1933C58.8758 25.541 58.7183 25.9821 58.7242 26.4361V45.3794C58.7242 45.8818 58.9238 46.3636 59.279 46.7189C59.6343 47.0741 60.1161 47.2737 60.6185 47.2737C60.62 52.1441 58.9154 56.8611 55.8009 60.6054C52.6864 64.3497 48.3587 66.8848 43.5696 67.7704C43.653 67.1001 43.5926 66.4197 43.3926 65.7746C43.1925 65.1294 42.8572 64.5343 42.4091 64.0289C41.961 63.5235 41.4104 63.1193 40.7939 62.8433C40.1774 62.5673 39.5092 62.4259 38.8337 62.4284H35.0451C33.7891 62.4284 32.5845 62.9273 31.6964 63.8155C30.8082 64.7036 30.3093 65.9082 30.3093 67.1642C30.3093 68.4202 30.8082 69.6248 31.6964 70.5129C32.5845 71.401 33.7891 71.9 35.0451 71.9H39.7809C46.3122 71.9 52.576 69.3055 57.1943 64.6871C61.8126 60.0688 64.4072 53.805 64.4072 47.2737H66.3015C67.8087 47.2737 69.2542 46.675 70.32 45.6092C71.3857 44.5434 71.9845 43.098 71.9845 41.5907V30.2248C71.9845 28.7175 71.3857 27.2721 70.32 26.2063C69.2542 25.1405 67.8087 24.5418 66.3015 24.5418Z" fill="#575EFF"/>
</svg>
