<svg width="64" height="64" viewBox="0 0 64 64" fill="none" xmlns="http://www.w3.org/2000/svg">
<path d="M32.0019 37.3271C31.7273 37.3271 31.4526 37.2711 31.1966 37.1591L14.5301 29.8259C13.8048 29.5032 13.3354 28.7886 13.3354 27.9939C13.3354 27.1992 13.8048 26.4846 14.5301 26.1619L31.1966 18.8286C31.7086 18.6046 32.2953 18.6046 32.8073 18.8286L49.4738 26.1619C50.1991 26.4846 50.6684 27.1992 50.6684 27.9939C50.6684 28.7886 50.1991 29.5032 49.4738 29.8259L32.8073 37.1591C32.5513 37.2711 32.2766 37.3271 32.0019 37.3271Z" fill="#575EFF"/>
<path d="M34.4147 40.8194C33.6387 41.1581 32.8307 41.3261 31.9987 41.3261C31.1667 41.3261 30.3588 41.1581 29.5934 40.8248L18.6655 36.0142V37.8488C18.6655 39.4755 19.5162 41.0061 20.8842 41.8354C24.7268 44.1687 28.3641 45.3341 31.9987 45.3341C35.6334 45.3341 39.2707 44.1661 43.1133 41.8354C44.4813 41.0061 45.332 39.4781 45.332 37.8488V36.0142L34.4147 40.8194Z" fill="#575EFF"/>
<path d="M3.99996 32.0011C3.99996 16.5612 16.5598 4.00135 31.9997 4.00135C37.5436 4.00135 42.8129 5.62 47.2849 8.55331L43.2529 12.5879C42.6796 13.1586 42.5116 14.0199 42.8183 14.7666C43.1276 15.5132 43.8556 16.0012 44.6662 16.0012H56.6661C57.7701 16.0012 58.6661 15.1052 58.6661 14.0013V2.00137C58.6661 1.19338 58.1781 0.462719 57.4315 0.153388C56.6848 -0.158609 55.8235 0.014723 55.2528 0.588051L50.1489 5.692C44.8929 2.0387 38.6236 0.00138976 31.9997 0.00138976C14.3545 0.00138976 0 14.3559 0 32.0011C0 35.1291 0.461329 38.2384 1.36799 41.2437C1.68532 42.297 2.79197 42.8997 3.8613 42.5823C4.91729 42.2623 5.51728 41.1477 5.19728 40.089C4.40263 37.457 3.99996 34.7371 3.99996 32.0011Z" fill="#575EFF"/>
<path d="M62.6341 22.7578C62.3167 21.7018 61.2047 21.1018 60.1408 21.4191C59.0848 21.7391 58.4848 22.8538 58.8048 23.9124C59.5994 26.5444 60.0021 29.2644 60.0021 32.0004C60.0021 47.4402 47.4422 60.0001 32.0024 60.0001C26.4584 60.0001 21.1891 58.3814 16.7172 55.4481L20.7491 51.4135C21.3225 50.8429 21.4905 49.9815 21.1838 49.2349C20.8745 48.4882 20.1465 48.0002 19.3358 48.0002H7.33592C6.23193 48.0002 5.33594 48.8962 5.33594 50.0002V62.0001C5.33594 62.8081 5.82393 63.5387 6.57059 63.8481C7.29592 64.1494 8.16258 64.0001 8.74924 63.4134L13.8532 58.3094C19.1091 61.9627 25.3784 64.0001 32.0024 64.0001C49.6475 64.0001 64.0021 49.6455 64.0021 32.0004C64.0021 28.8724 63.5407 25.7631 62.6341 22.7578Z" fill="#575EFF"/>
</svg>
