<svg width="57" height="66" viewBox="0 0 57 66" fill="none" xmlns="http://www.w3.org/2000/svg">
<path d="M56.9614 14.1566C49.8317 13.0013 44.6265 7.11672 44.6551 0.244115L44.6561 0H12.3296L12.3306 0.243128C12.3598 7.11573 7.15498 13.0007 0.0254365 14.1564L0.0244494 14.1566C-0.836653 51.0162 21.2969 63.1852 27.1108 65.7411C27.9797 66.1229 28.9764 66.0798 29.8109 65.6287C35.4937 62.5557 57.586 48.3905 56.9614 14.1566ZM28.4872 48.1893C18.8598 48.1893 11.0274 40.4181 11.0274 30.8658C11.0274 21.3136 18.8598 13.5424 28.4872 13.5424C38.1146 13.5424 45.947 21.3136 45.947 30.8658C45.947 40.4181 38.1146 48.1893 28.4872 48.1893Z" fill="#575EFF"/>
<path d="M28.4873 18.0837C21.3934 18.0837 15.6221 23.8178 15.6221 30.8659C15.6221 37.9139 21.3934 43.648 28.4873 43.648C35.5811 43.648 41.3525 37.9139 41.3525 30.8659C41.3525 23.8178 35.5811 18.0837 28.4873 18.0837ZM27.6479 36.8626C26.7187 37.8021 25.1255 37.7502 24.2606 36.7528L19.8406 31.6549L23.3295 28.6999L26.1166 31.9144L33.8517 24.0943L37.1372 27.2689L27.6479 36.8626Z" fill="#575EFF"/>
</svg>
