<svg width="76" height="76" viewBox="0 0 76 76" fill="none" xmlns="http://www.w3.org/2000/svg">
<path d="M75.1299 12.3132L38.4407 0.0708006C38.1555 -0.0236002 37.8443 -0.0236002 37.5591 0.0708006L0.8698 12.3132C0.633781 12.3919 0.426874 12.5322 0.273611 12.7175C0.120347 12.9028 0.0271575 13.1252 0.00509048 13.3585C-0.0169765 13.5917 0.0330052 13.826 0.149109 14.0335C0.265213 14.241 0.442569 14.4131 0.660147 14.5293L18.3456 23.9706V29.2913C14.5439 32.5905 11.7648 36.7865 10.3009 41.4375C8.83706 46.0885 8.74261 51.0222 10.0275 55.7192C11.3124 60.4161 13.9292 64.7023 17.6021 68.1264C21.275 71.5505 25.8682 73.9857 30.8979 75.1755C35.9275 76.3653 41.2075 76.2658 46.1817 74.8873C51.1559 73.5088 55.6402 70.9023 59.1622 67.3426C62.6843 63.7828 65.1138 59.4014 66.1948 54.6598C67.2758 49.9183 66.9684 44.9921 65.3048 40.4001H66.8278C67.1753 40.4001 67.5086 40.2711 67.7544 40.0415C68.0001 39.8118 68.1381 39.5004 68.1381 39.1757V29.382C68.1356 28.6249 67.8824 27.887 67.4132 27.2698C66.9439 26.6525 66.2818 26.186 65.5175 25.9345V19.7735L75.3399 14.5294C75.5574 14.4132 75.7348 14.2412 75.8509 14.0336C75.967 13.8261 76.017 13.5919 75.9949 13.3586C75.9728 13.1253 75.8797 12.9029 75.7264 12.7176C75.5731 12.5324 75.3662 12.392 75.1302 12.3133L75.1299 12.3132ZM55.0348 27.216C50.0874 23.8415 44.1186 22.0265 37.9933 22.034C31.8679 22.0415 25.9042 23.871 20.9662 27.2575V23.5844C25.9032 20.1909 31.8716 18.3606 38.0005 18.3606C44.1294 18.3606 50.0979 20.1909 55.0348 23.5844V27.216ZM23.161 28.8085C27.6502 29.2402 33.0033 31.1493 33.7938 37.6793C34.4963 43.5118 31.8705 45.4757 29.0905 47.5549C26.8141 49.2576 24.4602 51.0176 24.4602 54.6835C24.4602 57.7821 23.5658 60.0801 21.8741 61.3302C21.0252 61.8759 20.057 62.2385 19.0397 62.3916C18.0224 62.5447 16.9813 62.4845 15.9919 62.2154C12.2877 56.8734 10.964 50.3903 12.3034 44.1492C13.6427 37.9082 17.539 32.4031 23.161 28.8085ZM64.2072 48.97C64.2079 54.4861 62.204 59.8391 58.5236 64.1521C58.2611 63.9284 58.049 63.6579 57.9 63.3566C57.7509 63.0552 57.6678 62.7291 57.6555 62.3973C57.6555 60.5566 57.6555 55.6663 54.5077 53.6756C52.8761 52.6418 50.7571 52.597 48.2157 53.5464C45.4876 54.5639 43.302 54.4491 41.8969 53.2098C41.2095 52.5103 40.7412 51.6477 40.5431 50.7163C40.3449 49.7849 40.4246 48.8205 40.7734 47.9285C41.1958 46.7419 43.389 46.0209 45.5094 45.3238C49.0948 44.1455 54.0035 42.5323 52.4091 37.2118C52.0638 35.894 52.0118 34.524 52.2563 33.1867C52.5008 31.8493 53.0366 30.5731 53.8304 29.4371C56.3951 31.2624 58.5799 33.5118 60.2762 36.0735V39.1757C60.2762 39.5004 60.4142 39.8118 60.6599 40.0415C60.9057 40.2711 61.239 40.4001 61.5865 40.4001H62.5346C63.6381 43.1397 64.2047 46.0427 64.2072 48.97ZM65.5175 37.9513H62.8968V29.382C62.8968 29.0573 63.0349 28.7459 63.2806 28.5163C63.5263 28.2867 63.8596 28.1577 64.2072 28.1577C64.5547 28.1577 64.888 28.2867 65.1337 28.5163C65.3794 28.7459 65.5175 29.0573 65.5175 29.382V37.9513ZM62.8968 25.9345C62.1325 26.186 61.4704 26.6525 61.0011 27.2698C60.5319 27.887 60.2787 28.6249 60.2762 29.382V31.8724C59.4656 30.947 58.5901 30.0729 57.6555 29.256V23.971L62.8968 21.1727V25.9345Z" fill="#575EFF"/>
</svg>
