<svg width="73" height="64" viewBox="0 0 73 64" fill="none" xmlns="http://www.w3.org/2000/svg">
<path d="M43.0142 4.30905C38.5064 1.52879 33.1646 0 27.6466 0C12.6259 0 0 11.1909 0 25.52C0 30.5438 1.56069 35.3599 4.52526 39.5192L0.383934 52.5211C-0.0535919 53.8945 0.975146 55.2932 2.41064 55.2932C2.73886 55.2932 3.0692 55.2174 3.37402 55.0623L15.9684 48.6586C16.4784 48.8782 16.9947 49.0825 17.5163 49.2722C14.6004 44.7209 13.0435 39.4964 13.0435 34.0266C13.0435 17.7368 26.7503 5.21344 43.0142 4.30905Z" fill="#575EFF"/>
<path d="M68.0649 48.026C71.0294 43.8667 72.5901 39.0507 72.5901 34.0268C72.5901 19.6925 59.9589 8.50681 44.9435 8.50681C29.9227 8.50681 17.2969 19.6977 17.2969 34.0268C17.2969 48.361 29.9281 59.5467 44.9435 59.5467C48.9724 59.5467 52.9868 58.7257 56.621 57.1651L69.2161 63.5691C69.9804 63.9577 70.9037 63.8492 71.5571 63.2939C72.2106 62.7386 72.4666 61.8451 72.2063 61.028L68.0649 48.026ZM36.2951 36.1534C35.1206 36.1534 34.1684 35.2012 34.1684 34.0268C34.1684 32.8523 35.1206 31.9001 36.2951 31.9001C37.4696 31.9001 38.4217 32.8523 38.4217 34.0268C38.4217 35.2012 37.4696 36.1534 36.2951 36.1534ZM44.8017 36.1534C43.6272 36.1534 42.6751 35.2012 42.6751 34.0268C42.6751 32.8523 43.6272 31.9001 44.8017 31.9001C45.9762 31.9001 46.9284 32.8523 46.9284 34.0268C46.9284 35.2012 45.9762 36.1534 44.8017 36.1534ZM53.3084 36.1534C52.1339 36.1534 51.1817 35.2012 51.1817 34.0268C51.1817 32.8523 52.1339 31.9001 53.3084 31.9001C54.4829 31.9001 55.435 32.8523 55.435 34.0268C55.435 35.2012 54.4829 36.1534 53.3084 36.1534Z" fill="#575EFF"/>
</svg>
