<svg width="18" height="18" viewBox="0 0 18 18" fill="none" xmlns="http://www.w3.org/2000/svg">
<path d="M17.6693 14.1L13.562 10.3655C13.3679 10.189 13.1127 10.0949 12.8505 10.103C12.5882 10.1111 12.3394 10.2208 12.1565 10.4089L9.73862 12.8956C9.15662 12.7844 7.98657 12.4197 6.78216 11.2183C5.57775 10.0129 5.21299 8.83977 5.10488 8.26181L7.58948 5.84289C7.77783 5.66014 7.88768 5.41127 7.89579 5.14895C7.9039 4.88663 7.80963 4.63145 7.63292 4.43741L3.89946 0.331103C3.72268 0.136455 3.47698 0.0183858 3.21455 0.00197211C2.95212 -0.0144416 2.69363 0.0720932 2.49398 0.243198L0.301387 2.12357C0.126699 2.29889 0.0224326 2.53223 0.00836818 2.77933C-0.00678797 3.03193 -0.295765 9.01558 4.34404 13.6574C8.39174 17.7041 13.462 18.0001 14.8584 18.0001C15.0625 18.0001 15.1878 17.9941 15.2211 17.9921C15.4682 17.9782 15.7014 17.8735 15.8758 17.698L17.7552 15.5044C17.927 15.3054 18.0142 15.0471 17.9981 14.7847C17.9821 14.5223 17.8641 14.2766 17.6693 14.1Z" fill="white"/>
</svg>
